<?xml version="1.0" encoding="utf-8"?>
<!-- Generator: Adobe Illustrator 28.1.0, SVG Export Plug-In . SVG Version: 6.00 Build 0)  -->
<svg version="1.1" id="Layer_1" xmlns="http://www.w3.org/2000/svg" xmlns:xlink="http://www.w3.org/1999/xlink" x="0px" y="0px"
	 viewBox="0 0 2000 500" style="enable-background:new 0 0 2000 500;" xml:space="preserve">
<style type="text/css">
	.st0{fill:url(#SVGID_1_);stroke:#000000;stroke-miterlimit:10;}
	.st1{fill:url(#SVGID_00000080186805123638850000000005203180104687307180_);stroke:#000000;stroke-miterlimit:10;}
	.st2{fill:url(#SVGID_00000091722136572798451400000008009910437445889722_);stroke:#000000;stroke-miterlimit:10;}
</style>
<linearGradient id="SVGID_1_" gradientUnits="userSpaceOnUse" x1="-113.3847" y1="-88.8397" x2="2437.8147" y2="452.714">
	<stop  offset="0" style="stop-color:#FF5500"/>
	<stop  offset="1" style="stop-color:#E98200"/>
</linearGradient>
<path class="st0" d="M-37.45,240.21c50.02,32.75,100.89,43.84,216.81,51.26c129.53,8.29,213.35,13.66,338.66-2.52
	c117.46-15.16,103.49-27.58,220.17-44.54c173.89-25.27,314.68-13.63,383.19-7.56c85.49,7.57,172.91,21.57,284.87,39.5
	c94.8,15.18,141.15,24.69,214.29,21.01c100.94-5.08,102.28-27.7,179.83-29.41c158.7-3.51,218.85,89.76,280.67,52.1
	c55.81-34,69.73-148.35,25.21-217.65c-29.25-45.52-77.79-62.37-142.02-78.99c-182.51-47.22-332.03-51.26-384.03-52.94
	c-228.39-7.36-169.72-20.52-417.65-29.41c-152.37-5.46-260.97-3.36-478.15,0.84C249.16-49.69,301.31-33.45,204.56-45.5
	C59.13-63.62-29.24-96.65-87.03-42.14c-45.1,42.54-59.22,126.73-32.77,191.6C-99.73,198.71-61.23,224.65-37.45,240.21z"/>
<linearGradient id="SVGID_00000091015574738966533280000001329189465432059804_" gradientUnits="userSpaceOnUse" x1="473.4451" y1="-31.9634" x2="2191.3848" y2="282.5517">
	<stop  offset="0" style="stop-color:#00767F"/>
	<stop  offset="1" style="stop-color:#007D94"/>
</linearGradient>
<path style="fill:url(#SVGID_00000091015574738966533280000001329189465432059804_);stroke:#000000;stroke-miterlimit:10;" d="
	M-37.45,165.64c57.02,28.61,90.32,2.43,225.44-2.61c51.11-1.9,111.78-3.82,184.95,10.57c98.49,19.36,100.83,44.9,163.82,52.84
	c120.25,15.17,148.58-73.25,282.72-87.19c112.03-11.65,110.24,48.17,288,68.7c92.2,10.65,75.39-7.44,298.77-6.17
	c124.18,0.7,150.18,6.41,219.1-4.39c119.86-18.79,122.02-48.72,192.88-47.56c142.98,2.33,200.34,125.25,262.81,95.65
	c53.81-25.5,71.72-145.25,25.21-217.65c-29.25-45.52-77.79-62.37-142.02-78.99c-182.51-47.22-332.03-51.26-384.03-52.94
	c-228.39-7.36-169.72-20.52-417.65-29.41c-152.37-5.46-260.97-3.36-478.15,0.84c-435.23,8.42-383.09,24.66-479.83,12.61
	c-145.43-18.12-233.8-51.15-291.6,3.36c-45.1,42.54-59.22,126.73-32.77,191.6C-115.29,85.96-92.93,137.8-37.45,165.64z"/>
<linearGradient id="SVGID_00000152952138362681046610000009580971239670519227_" gradientUnits="userSpaceOnUse" x1="-158.1096" y1="-233.4238" x2="2387.3794" y2="276.7314">
	<stop  offset="0" style="stop-color:#FFA415"/>
	<stop  offset="1" style="stop-color:#FFB815"/>
</linearGradient>
<path style="fill:url(#SVGID_00000152952138362681046610000009580971239670519227_);stroke:#000000;stroke-miterlimit:10;" d="
	M-37.45,97.01c66.79,36.49,127.93,16.42,201.66,10.53c161.46-12.88,167.5,59.51,343.49,66.06c82.28,3.06,67.8-13.26,348.77-60.77
	c150.8-25.5,227.22-38.12,277.43-31.71c129.57,16.55,147.69,68.7,295.93,87.19c102.14,12.74,188.81-0.14,221.94-5.28
	c150.72-23.41,187.64-71.23,277.43-50.2c87.96,20.6,111.49,80.29,151.84,64.01c51.58-20.8,73.44-142.58,25.21-217.65
	c-29.25-45.52-77.79-62.37-142.02-78.99c-182.51-47.22-332.03-51.26-384.03-52.94c-228.39-7.36-169.72-20.52-417.65-29.41
	c-152.37-5.46-260.97-3.36-478.15,0.84c-435.23,8.42-383.09,24.66-479.83,12.61c-145.43-18.12-233.8-51.15-291.6,3.36
	c-45.1,42.54-59.22,126.73-32.77,191.6C-97.13,61.87-51.73,89.21-37.45,97.01z"/>
</svg>
